<?xml version="1.0" encoding="iso-8859-1"?>
<!-- Generator: Adobe Illustrator 19.0.0, SVG Export Plug-In . SVG Version: 6.00 Build 0)  -->
<svg version="1.1" id="Capa_1" xmlns="http://www.w3.org/2000/svg" xmlns:xlink="http://www.w3.org/1999/xlink" x="0px" y="0px"
	 viewBox="0 0 59.25 59.25" style="enable-background:new 0 0 59.25 59.25;" xml:space="preserve">
<path d="M56.326,4.528c-1.882-1.882-4.393-2.918-7.07-2.918c-2.679,0-5.19,1.036-7.057,2.904L39.74,6.876
	c-2.507-2.397-5.285-4.513-8.307-6.262C30.713,0,29.558,0.052,28.9,0.718c-0.346,0.35-0.533,0.817-0.527,1.316l0.083,7.538
	c0.012,2.712-1.046,5.344-2.905,7.222l-6.718,6.812l-1.009-1.009C17.928,22.436,18,22.259,18,22.065v-2
	c0-0.266-0.105-0.52-0.293-0.707l-1-1c-0.188-0.188-0.442-0.293-0.707-0.293h-2c-0.265,0-0.52,0.105-0.707,0.293l-1,1
	C12.105,19.546,12,19.8,12,20.065v2c0,0.266,0.105,0.52,0.293,0.707l1,1c0.188,0.188,0.442,0.293,0.707,0.293h2
	c0.134,0,0.265-0.028,0.387-0.079l1.043,1.043l-4.213,4.272l-1.22-1.22c0-0.006,0.003-0.011,0.003-0.016v-2
	c0-0.266-0.105-0.52-0.293-0.707l-1-1c-0.188-0.188-0.442-0.293-0.707-0.293H8c-0.265,0-0.52,0.105-0.707,0.293l-1,1
	C6.105,25.546,6,25.8,6,26.065v2c0,0.266,0.105,0.52,0.293,0.707l1,1C7.48,29.96,7.735,30.065,8,30.065h2
	c0.265,0,0.52-0.105,0.707-0.293l0.076-0.076l1.029,1.029l-4.214,4.272l-1.654-1.654C5.971,33.253,6,33.162,6,33.065v-2
	c0-0.266-0.105-0.52-0.293-0.707l-1-1C4.52,29.171,4.265,29.065,4,29.065H2c-0.265,0-0.52,0.105-0.707,0.293l-1,1
	C0.105,30.546,0,30.8,0,31.065v2c0,0.266,0.105,0.52,0.293,0.707l1,1C1.48,34.96,1.735,35.065,2,35.065h2
	c0.226,0,0.435-0.09,0.61-0.228l1.584,1.584l-0.218,0.221l4.243,4.243l1.414,1.414l0,0l0.218-0.221l6.998,6.998l-0.707,0.707
	c-0.178,0.178-0.331,0.37-0.469,0.57c-0.047,0.068-0.082,0.141-0.124,0.211c-0.083,0.139-0.162,0.279-0.227,0.425
	c-0.038,0.085-0.067,0.172-0.099,0.259c-0.052,0.145-0.098,0.291-0.133,0.44c-0.02,0.086-0.038,0.172-0.053,0.26
	c-0.028,0.17-0.043,0.34-0.05,0.512c-0.002,0.05-0.015,0.099-0.015,0.15c0,0.022,0.006,0.042,0.006,0.064
	c0.003,0.222,0.024,0.442,0.064,0.661c0.004,0.024,0.004,0.048,0.009,0.072c0.047,0.234,0.118,0.464,0.208,0.688
	c0.03,0.076,0.071,0.146,0.106,0.219c0.052,0.11,0.096,0.222,0.158,0.328l-0.09,0.09c-1.504,1.504-3.513,2.332-5.657,2.332
	s-4.153-0.828-5.657-2.332c-2.613-2.612-3.066-6.617-1.233-9.718l1.119,1.119l1.881,1.882l0,0l0,0l1.572-2.56l0.952-1.549l0,0
	l-1.44-1.44l-4.55-4.55l-3.937,2.695l2.955,2.955c-2.603,3.929-2.122,9.192,1.268,12.581c1.881,1.882,4.393,2.918,7.071,2.918
	s5.189-1.036,7.071-2.918l0.101-0.101c0.607,0.357,1.295,0.562,2.021,0.562c1.071,0,2.075-0.415,2.828-1.168l14.143-14.143
	c0.753-0.753,1.168-1.757,1.168-2.828c0-0.726-0.205-1.414-0.562-2.02l2.17-2.171c0.176,0.684,0.516,1.314,1.026,1.825
	c0.753,0.753,1.757,1.168,2.828,1.168s2.075-0.415,2.829-1.168l5.342-5.342c1.56-1.56,1.56-4.098,0-5.657
	c-0.511-0.51-1.142-0.85-1.826-1.026l5.408-5.408C60.224,14.772,60.224,8.428,56.326,4.528z M51.33,29.348l-5.342,5.342
	c-0.751,0.75-2.078,0.752-2.829,0c-0.375-0.375-0.582-0.877-0.582-1.414c0-0.536,0.207-1.038,0.582-1.414l5.343-5.343
	c0.375-0.375,0.877-0.581,1.414-0.581c0.536,0,1.039,0.206,1.414,0.581C52.11,27.299,52.11,28.567,51.33,29.348z M38.587,13.779
	c0.992,0.069,1.972,0.265,2.912,0.578c0.524,0.174,0.807,0.74,0.632,1.265c-0.14,0.419-0.53,0.684-0.949,0.684
	c-0.104,0-0.211-0.017-0.316-0.052c-0.781-0.26-1.596-0.422-2.42-0.48c-0.551-0.038-0.966-0.517-0.927-1.067
	S38.032,13.743,38.587,13.779z M25.92,42.006l-7.047-7.047l4.214-4.272l7.076,7.076L25.92,42.006z M13.256,40.655l4.213-4.272
	l7.037,7.037l-4.242,4.242L13.256,40.655z M36.527,39.884L22.385,54.026c-0.751,0.752-2.077,0.752-2.828,0
	c-0.096-0.096-0.18-0.2-0.252-0.309c-0.041-0.062-0.071-0.131-0.105-0.197c-0.025-0.049-0.056-0.096-0.077-0.146
	c-0.098-0.238-0.149-0.496-0.149-0.763c0-0.266,0.052-0.524,0.149-0.762c0.022-0.053,0.054-0.102,0.081-0.153
	c0.033-0.064,0.061-0.13,0.101-0.19c0.072-0.109,0.156-0.213,0.252-0.309l14.142-14.142c0.751-0.752,2.078-0.75,2.829,0
	c0.375,0.375,0.582,0.877,0.582,1.414S36.903,39.509,36.527,39.884z M37.145,35.023c-0.099-0.058-0.206-0.099-0.31-0.147
	c-0.084-0.04-0.166-0.086-0.253-0.12c-0.073-0.028-0.15-0.045-0.226-0.068c-0.398-0.13-0.813-0.214-1.244-0.214
	c-0.613,0-1.198,0.15-1.733,0.408c-0.023,0.011-0.044,0.024-0.067,0.036c-0.169,0.085-0.335,0.173-0.491,0.282
	c-0.191,0.13-0.372,0.276-0.538,0.442l-0.707,0.707l-7.086-7.086l6.727-6.82c1.821-1.841,4.433-2.896,7.207-2.896l7.564,0.084
	c0.168,0,0.328-0.03,0.484-0.072c0.035-0.009,0.068-0.018,0.102-0.029c0.147-0.049,0.286-0.113,0.414-0.196
	c0.026-0.017,0.048-0.037,0.073-0.055c0.112-0.081,0.214-0.173,0.306-0.276c0.019-0.021,0.039-0.039,0.057-0.061
	c0.099-0.123,0.179-0.261,0.245-0.407c0.006-0.015,0.018-0.025,0.024-0.04c0.007-0.017,0.007-0.035,0.014-0.052
	c0.054-0.14,0.096-0.286,0.115-0.442c0-0.002,0.001-0.004,0.001-0.006c0.001-0.005,0.002-0.009,0.003-0.014
	c0.008-0.078-0.007-0.153-0.008-0.23c-0.002-0.091,0.005-0.183-0.01-0.273c-0.001-0.008,0.001-0.017-0.001-0.025
	c-0.022-0.124-0.068-0.24-0.115-0.356c-0.012-0.031-0.016-0.064-0.03-0.094c-0.071-0.153-0.161-0.297-0.273-0.429
	c-0.429-0.741-0.887-1.465-1.36-2.181c-0.14-0.212-0.285-0.42-0.429-0.63c-0.363-0.53-0.738-1.052-1.124-1.565
	c-0.143-0.19-0.284-0.382-0.43-0.569c-0.525-0.676-1.064-1.341-1.627-1.983c-0.405-0.462-0.824-0.92-1.251-1.367l2.428-2.333
	c1.504-1.504,3.513-2.332,5.657-2.332c2.144,0,4.152,0.828,5.656,2.332c3.119,3.12,3.119,8.195,0,11.314L37.145,35.023z"/>
<g>
</g>
<g>
</g>
<g>
</g>
<g>
</g>
<g>
</g>
<g>
</g>
<g>
</g>
<g>
</g>
<g>
</g>
<g>
</g>
<g>
</g>
<g>
</g>
<g>
</g>
<g>
</g>
<g>
</g>
</svg>
