<?xml version="1.0" encoding="iso-8859-1"?>
<!-- Generator: Adobe Illustrator 19.0.0, SVG Export Plug-In . SVG Version: 6.00 Build 0)  -->
<svg version="1.1" id="Layer_1" xmlns="http://www.w3.org/2000/svg" xmlns:xlink="http://www.w3.org/1999/xlink" x="0px" y="0px"
	 viewBox="0 0 512 512" style="enable-background:new 0 0 512 512;" xml:space="preserve">
<g>
	<g>
		<path d="M304.091,227.115H187.636h-58.273H23.273v-11.636H0v11.216v23.273v12.057h23.273v-11.636h49.229
			C57.398,264.934,48,285.797,48,308.57c0,44.909,36.5,81.455,81.364,81.455h174.727c44.864,0,81.364-36.545,81.364-81.455
			S348.954,227.115,304.091,227.115z M304.091,366.752H129.364c-32.034,0-58.091-26.102-58.091-58.182s26.057-58.182,58.091-58.182
			h58.273h116.454c32.034,0,58.091,26.102,58.091,58.182S336.125,366.752,304.091,366.752z"/>
	</g>
</g>
<g>
	<g>
		<rect x="186.182" y="262.019" width="23.273" height="93.091"/>
	</g>
</g>
<g>
	<g>
		<rect x="221.091" y="262.019" width="23.273" height="93.091"/>
	</g>
</g>
<g>
	<g>
		<rect x="256" y="262.019" width="23.273" height="93.091"/>
	</g>
</g>
<g>
	<g>
		<path d="M209.977,199.002c-0.585-1.511-1.398-2.795-2.443-3.841c-1.164-1.045-2.329-1.864-3.841-2.443
			c-4.187-1.75-9.426-0.818-12.682,2.443c-1.051,1.046-1.864,2.33-2.449,3.841c-0.58,1.398-0.926,2.909-0.926,4.421
			c0,3.148,1.159,6.057,3.375,8.261c1.159,1.046,2.443,1.864,3.835,2.443c1.398,0.579,2.909,0.932,4.426,0.932
			c3.142,0,6.051-1.159,8.261-3.375c1.046-1.159,1.858-2.443,2.443-3.841c0.699-1.398,0.932-2.909,0.932-4.42
			C210.909,201.911,210.676,200.399,209.977,199.002z"/>
	</g>
</g>
<g>
	<g>
		<path d="M244.886,199.002c-0.585-1.511-1.398-2.795-2.443-3.841c-4.307-4.307-12.221-4.307-16.522,0
			c-1.051,1.046-1.864,2.33-2.449,3.841c-0.58,1.398-0.926,2.909-0.926,4.421c0,3.148,1.159,6.057,3.375,8.261
			c1.159,1.046,2.443,1.864,3.835,2.443c1.398,0.579,2.909,0.932,4.426,0.932c1.511,0,3.023-0.352,4.42-0.932
			c1.398-0.58,2.676-1.398,3.841-2.443c2.21-2.204,3.375-5.114,3.375-8.261C245.818,201.911,245.466,200.399,244.886,199.002z"/>
	</g>
</g>
<g>
	<g>
		<path d="M279.796,199.002c-0.585-1.511-1.398-2.795-2.443-3.841c-3.261-3.261-8.38-4.193-12.687-2.443
			c-1.511,0.58-2.676,1.398-3.835,2.443c-1.051,1.046-1.864,2.33-2.449,3.841c-0.58,1.398-0.926,2.909-0.926,4.421
			c0,3.148,1.159,6.057,3.375,8.261c2.21,2.216,5.119,3.375,8.261,3.375c1.511,0,3.023-0.352,4.42-0.932
			c1.398-0.58,2.676-1.398,3.841-2.443c2.21-2.204,3.375-5.114,3.375-8.261C280.727,201.911,280.375,200.399,279.796,199.002z"/>
	</g>
</g>
<g>
	<g>
		<path d="M501.733,121.99c-5.932-0.307-11.165,4.182-11.841,10.33c-10.204,91.864-110.824,83.204-115.119,82.795
			c-6.392-0.591-11.994,4.045-12.614,10.443c-0.631,6.387,3.341,12.08,9.727,12.716c32.074,3.193,87.75-4.273,116.841-43.693
			v109.523c-14.545-21.818-43.062-43.466-89.841-53.864c-6.284-1.352-12.125,2.568-13.517,8.841
			c-1.398,6.273,2.744,12.489,9.017,13.886c93.784,20.841,95.676,90.466,95.704,93.364c0,6.432,4.529,11.636,10.955,11.636
			c6.426,0,10.954-5.205,10.954-11.636V133.604C512,127.422,507.903,122.331,501.733,121.99z"/>
	</g>
</g>
<g>
</g>
<g>
</g>
<g>
</g>
<g>
</g>
<g>
</g>
<g>
</g>
<g>
</g>
<g>
</g>
<g>
</g>
<g>
</g>
<g>
</g>
<g>
</g>
<g>
</g>
<g>
</g>
<g>
</g>
</svg>
